<svg xmlns="http://www.w3.org/2000/svg" width="136" height="27" fill="none"><path fill="#333" d="M13.997 26.15v-3.955l.347.07q-.347 1.925-2.078 3.08Q10.57 26.5 8.18 26.5q-2.424 0-4.225-1.12-1.766-1.155-2.735-3.22-.97-2.065-.97-4.865 0-2.835 1.004-4.935T4.06 9.105Q5.894 7.95 8.319 7.95q2.528 0 4.085 1.19 1.593 1.19 1.87 3.255l-.38.035V.95h5.193v25.2zM9.842 22.3q1.835 0 2.978-1.295 1.143-1.33 1.143-3.78t-1.178-3.745q-1.143-1.33-3.012-1.33-1.8 0-2.978 1.33-1.143 1.33-1.143 3.78t1.143 3.745Q7.972 22.3 9.842 22.3M31.551 26.5q-2.943 0-5.125-1.155-2.181-1.19-3.393-3.29-1.178-2.1-1.178-4.83 0-2.765 1.178-4.83A8.4 8.4 0 0 1 26.39 9.14q2.148-1.19 4.987-1.19 2.736 0 4.744 1.12a7.9 7.9 0 0 1 3.116 3.115q1.108 1.995 1.108 4.69 0 .56-.034 1.05-.035.455-.104.875H24.903v-3.465h11.115l-.9.63q0-2.17-1.04-3.185-1.003-1.05-2.77-1.05-2.042 0-3.185 1.4-1.108 1.4-1.108 4.2 0 2.73 1.108 4.06 1.143 1.33 3.393 1.33 1.247 0 2.147-.42t1.35-1.365h4.883q-.866 2.59-2.978 4.095-2.078 1.47-5.367 1.47M47.43 26.15 40.47 8.3h5.575l5.437 16.66h-2.91L53.976 8.3h5.436l-6.96 17.85zM61.419 26.15V.95h5.194v25.2zM70.752 26.15V8.3h5.194v17.85zm-.173-20.23V.25h5.54v5.67zM80.085 26.15V8.3h5.09v4.2h.104v13.65zm12.293 0V15.09q0-1.47-.762-2.205-.727-.735-2.147-.735-1.212 0-2.181.56a4.1 4.1 0 0 0-1.49 1.54q-.519.98-.519 2.31l-.45-4.305q.866-1.96 2.528-3.115 1.697-1.19 4.155-1.19 2.944 0 4.502 1.68 1.558 1.645 1.558 4.445V26.15zM101.525 26.15V.95h5.194v25.2zm11.323 0-7.341-9.275 7.168-8.575h5.99l-8.414 9.38.242-1.645 8.519 10.115z"></path><path fill="#333" d="M127.493 26.5q-3.878 0-6.163-1.575t-2.494-4.34h4.641q.172 1.19 1.177 1.82 1.038.595 2.839.595 1.627 0 2.355-.455.762-.49.762-1.365 0-.665-.45-1.015-.416-.386-1.558-.63l-2.84-.595q-3.151-.665-4.64-1.995-1.49-1.365-1.489-3.5 0-2.59 1.974-4.025 1.974-1.47 5.506-1.47 3.496 0 5.575 1.435 2.077 1.4 2.285 3.92h-4.64q-.138-.91-.97-1.365-.831-.49-2.354-.49-1.386 0-2.078.42-.658.385-.658 1.12 0 .63.554 1.015.554.35 1.835.63l3.186.665q2.667.56 4.017 2.1 1.385 1.505 1.385 3.57 0 2.625-2.043 4.095-2.008 1.435-5.714 1.435"></path></svg>